{"title":"I, Robot 2004 DVD9rip English Klam","uid":10710935,"size":1968853708,"categoryP":"video","categoryS":"movies","magnet":"?xt=urn:btih:674c84cfd3973c7467c8df7247acc5867db154f4&amp;dn=I%2C+Robot+2004+DVD9rip+English+Klam&amp;tr=udp%3A%2F%2Ftracker.openbittorrent.com%3A80&amp;tr=udp%3A%2F%2Fopen.demonii.com%3A1337&amp;tr=udp%3A%2F%2Ftracker.coppersurfer.tk%3A6969&amp;tr=udp%3A%2F%2Fexodus.desync.com%3A6969","seeders":1,"leechers":2,"uploader":"Klambake","files":-1,"time":1407353245,"description":"With: Will Smith, Bridget Moynahan and Bruce Greenwood\n\nIn het Chicago van 2035 behoren robots tot het alledaagse leven. Ze staan ten dienste van de mensen en worden door hen blindelings vertrouwd, omdat ze geprogrammeerd zijn volgens de drie wetten van de robotica. Deze bepalen dat de technologische hoogstandjes de mensen geen kwaad kunnen doen. Rechercheur Del Spooner houdt er echter een andere mening op na. Hij moet de moord op de briljante wetenschapper Alfred Lanning ophelderen en hij vermoedt dat de dader een robot is. Naarmate het onderzoek van Spooner vordert, groeit bij hem het besef dat de hele mensheid in gevaar is.\n\nIn 2035 a technophobic cop investigates a crime that may have been perpetrated by a robot, which leads to a larger threat to humanity.\n &lt;a href=&quot;\nhttp://www.imdb.com/title/tt0343818&quot; rel=&quot;nofollow&quot; target=&quot;_NEW&quot;&gt;\nhttp://www.imdb.com/title/tt0343818&lt;/a&gt;\t\n\n--------------------- Dutch Friends 4ever ---------------------\n---------------------------------------------------------------\n- Bezoek ook eens mijn vrienden op: &lt;a href=&quot; http://www.Film-Test.nl&quot; rel=&quot;nofollow&quot; target=&quot;_NEW&quot;&gt; http://www.Film-Test.nl&lt;/a&gt; --\n----- voor mijn Nederlandse Sync. ondertitels ---- en meer ----\n------- http://www.Film-Test.nl ---- Over Films en meer -------\n---------------------------------------------------------------\n &lt;a href=&quot;\nhttp://i.imgur.com/MqROl0o.jpg&quot; rel=&quot;nofollow&quot; target=&quot;_NEW&quot;&gt;\nhttp://i.imgur.com/MqROl0o.jpg&lt;/a&gt; &lt;a href=&quot;\nhttp://i.imgur.com/Ttf2uSW.jpg&quot; rel=&quot;nofollow&quot; target=&quot;_NEW&quot;&gt;\nhttp://i.imgur.com/Ttf2uSW.jpg&lt;/a&gt; &lt;a href=&quot;\nhttp://i.imgur.com/XtSrOzH.jpg&quot; rel=&quot;nofollow&quot; target=&quot;_NEW&quot;&gt;\nhttp://i.imgur.com/XtSrOzH.jpg&lt;/a&gt;\n\nGeneral:\n\nComplete name                            : I, RobotI, Robot.avi\nFormat                                   : AVI\nFormat/Info                              : Audio Video Interleave\nFile size                                : 1.83 GiB\nDuration                                 : 1h 50mn\nOverall bit rate                         : 2 385 Kbps\n\nVideo:\n\nFormat                                   : MPEG-4 Visual\nFormat profile                           : Simple@L3\nFormat settings, BVOP                    : No\nFormat settings, QPel                    : No\nFormat settings, GMC                     : No warppoints\nFormat settings, Matrix                  : Default (H.263)\nCodec ID                                 : XVID\nCodec ID/Hint                            : XviD\nDuration                                 : 1h 50mn\nBit rate                                 : 1 926 Kbps\nWidth                                    : 720 pixels\nHeight                                   : 304 pixels\nDisplay aspect ratio                     : 2.35:1\nFrame rate                               : 25.000 fps\nColor space                              : YUV\nChroma subsampling                       : 4:2:0\nBit depth                                : 8 bits\nScan type                                : Progressive\nCompression mode                         : Lossy\nBits/(Pixel*Frame)                       : 0.352\nStream size                              : 1.48 GiB (81%)\nWriting library                          : XviD 1.1.2 (UTC 2006-11-01)\n\nAudio:\n\nFormat                                   : AC-3\nFormat/Info                              : Audio Coding 3\nMode extension                           : CM (complete main)\nFormat settings, Endianness              : Big\nCodec ID                                 : 2000\nDuration                                 : 1h 50mn\nSource duration                          : 1h 50mn\nBit rate mode                            : Constant\nBit rate                                 : 448 Kbps\nChannel(s)                               : 6 channels\nChannel positions                        : Front: L C R, Side: L R, LFE\nSampling rate                            : 48.0 KHz\nBit depth                                : 16 bits\nCompression mode                         : Lossy\nStream size                              : 353 MiB (19%)\nAlignment                                : Aligned on interleaves\nInterleave, duration                     : 32 ms (0.80 video frame)\nInterleave, preload duration             : 32 ms\n\n\n\n","torrent":{"xt":"urn:btih:674c84cfd3973c7467c8df7247acc5867db154f4","amp;dn":"I%2C+Robot+2004+DVD9rip+English+Klam","amp;tr":["udp%3A%2F%2Ftracker.openbittorrent.com%3A80","udp%3A%2F%2Fopen.demonii.com%3A1337","udp%3A%2F%2Ftracker.coppersurfer.tk%3A6969","udp%3A%2F%2Fexodus.desync.com%3A6969"],"infoHash":"674c84cfd3973c7467c8df7247acc5867db154f4","infoHashBuffer":{"type":"Buffer","data":[103,76,132,207,211,151,60,116,103,200,223,114,71,172,197,134,125,177,84,244]},"announce":[],"urlList":[]}}